HIERARCHY
ROOT Hips
{
	OFFSET -0.001795 -0.223333 0.028219
	CHANNELS 6 Xposition Yposition Zposition Zrotation Yrotation Xrotation 
	JOINT LeftUpLeg
	{
		OFFSET 0.069520 -0.091406 -0.006815
		CHANNELS 3 Zrotation Yrotation Xrotation
		JOINT LeftLeg
		{
			OFFSET 0.034277 -0.375199 -0.004496
			CHANNELS 3 Zrotation Yrotation Xrotation
			JOINT LeftFoot
			{
				OFFSET -0.013596 -0.397961 -0.043693
				CHANNELS 3 Zrotation Yrotation Xrotation
				JOINT LeftToe
				{
					OFFSET 0.026358 -0.055791 0.119288
					CHANNELS 3 Zrotation Yrotation Xrotation
					End Site
					{
						OFFSET 0.000000 0.000000 0.000000
					}
				}
			}
		}
	}
	JOINT RightUpLeg
	{
		OFFSET -0.067670 -0.090522 -0.004320
		CHANNELS 3 Zrotation Yrotation Xrotation
		JOINT RightLeg
		{
			OFFSET -0.038290 -0.382569 -0.008850
			CHANNELS 3 Zrotation Yrotation Xrotation
			JOINT RightFoot
			{
				OFFSET 0.015774 -0.398415 -0.042312
				CHANNELS 3 Zrotation Yrotation Xrotation
				JOINT RightToe
				{
					OFFSET -0.025372 -0.048144 0.123348
					CHANNELS 3 Zrotation Yrotation Xrotation
					End Site
					{
						OFFSET 0.000000 0.000000 0.000000
					}
				}
			}
		}
	}
	JOINT Spine
	{
		OFFSET -0.002533 0.108963 -0.026696
		CHANNELS 3 Zrotation Yrotation Xrotation
		JOINT Spine1
		{
			OFFSET 0.005487 0.135180 0.001092
			CHANNELS 3 Zrotation Yrotation Xrotation
			JOINT Spine2
			{
				OFFSET 0.001457 0.052922 0.025425
				CHANNELS 3 Zrotation Yrotation Xrotation
				JOINT Neck
				{
					OFFSET -0.002778 0.213870 -0.042857
					CHANNELS 3 Zrotation Yrotation Xrotation
					JOINT Head
					{
						OFFSET 0.005152 0.064970 0.051349
						CHANNELS 3 Zrotation Yrotation Xrotation
						End Site
						{
							OFFSET 0.000000 0.000000 0.000000
						}
					}
				}
				JOINT LeftShoulder
				{
					OFFSET 0.078845 0.121749 -0.034090
					CHANNELS 3 Zrotation Yrotation Xrotation
					JOINT LeftArm
					{
						OFFSET 0.090977 0.030469 -0.008868
						CHANNELS 3 Zrotation Yrotation Xrotation
						JOINT LeftForeArm
						{
							OFFSET 0.259612 -0.012772 -0.027456
							CHANNELS 3 Zrotation Yrotation Xrotation
							JOINT LeftHand
							{
								OFFSET 0.249234 0.008986 -0.001171
								CHANNELS 3 Zrotation Yrotation Xrotation
								End Site
								{
									OFFSET 0.000000 0.000000 0.000000
								}
							}
						}
					}
				}
				JOINT RightShoulder
				{
					OFFSET -0.081759 0.118833 -0.038615
					CHANNELS 3 Zrotation Yrotation Xrotation
					JOINT RightArm
					{
						OFFSET -0.096012 0.032551 -0.009143
						CHANNELS 3 Zrotation Yrotation Xrotation
						JOINT RightForeArm
						{
							OFFSET -0.253742 -0.013329 -0.021401
							CHANNELS 3 Zrotation Yrotation Xrotation
							JOINT RightHand
							{
								OFFSET -0.255298 0.007772 -0.005559
								CHANNELS 3 Zrotation Yrotation Xrotation
								End Site
								{
									OFFSET 0.000000 0.000000 0.000000
								}
							}
						}
					}
				}
			}
		}
	}
}
MOTION
Frames: 10
Frame Time: 0.050000
0.000000 0.925526 0.000000 1.174911 -1.760826 -0.078799 8.014565 -0.428722 -19.727064 -1.118290 0.152219 -1.072765 14.769557 24.538521 38.086787 0.000000 0.000000 0.000000 -0.777188 -0.429147 4.961220 0.460650 0.167304 5.744322 -0.959154 -0.626616 -3.403792 0.000000 0.000000 0.000000 6.564433 -0.872845 8.544469 -2.108361 1.012288 -1.244966 -1.938639 6.662048 9.213673 7.130971 -2.600621 -16.460997 0.000000 0.000000 0.000000 -19.069189 -11.325421 2.739205 -48.894940 -6.651376 -3.182254 -8.614244 -52.263531 5.474607 0.000000 0.000000 0.000000 17.806940 3.804548 1.984923 53.567553 12.970506 -0.220951 3.503914 45.300009 4.224064 0.000000 0.000000 0.000000 
0.011388 0.921840 0.023381 0.140265 -1.810347 0.475257 8.156587 -0.410702 -19.659053 0.285362 0.003645 -0.994400 35.200316 35.024880 62.397699 0.000000 0.000000 0.000000 -0.451610 -0.544354 5.945372 0.589463 0.168248 6.291299 -1.246437 -0.834835 -4.447452 0.000000 0.000000 0.000000 7.531307 -0.879886 7.698225 -2.426980 1.160326 -1.028645 -1.440384 6.350285 9.274604 6.688981 -2.209774 -17.426137 0.000000 0.000000 0.000000 -18.379374 -10.289764 2.353508 -49.040853 -6.720659 -3.227728 -8.713885 -55.510160 5.981983 0.000000 0.000000 0.000000 16.812040 2.668189 1.266225 56.198923 13.400131 0.172962 4.594818 46.144446 4.801736 0.000000 0.000000 0.000000 
0.024429 0.921258 0.048811 -0.035313 -3.712269 0.068632 7.632625 -0.380272 -18.119976 1.684935 -0.219045 0.497511 59.046621 36.380392 90.900001 0.000000 0.000000 0.000000 -1.493825 -0.544916 7.282097 0.455764 0.274112 8.002890 -0.974180 0.364977 -4.871031 0.000000 0.000000 0.000000 7.551020 -0.872886 7.883087 -2.264976 1.069257 -2.282335 -2.017407 8.094995 10.360923 6.557457 -2.077039 -17.220021 0.000000 0.000000 0.000000 -16.576068 -9.672224 1.983330 -49.123825 -7.189062 -3.165984 -12.056652 -58.728159 8.058416 0.000000 0.000000 0.000000 17.440098 2.200791 1.236151 53.854167 13.884283 0.104811 8.810848 48.961904 7.233341 0.000000 0.000000 0.000000 
0.038624 0.921266 0.075727 -0.386912 -4.160135 0.290830 7.515049 -0.382823 -18.104263 0.841468 -0.221928 3.209923 77.270274 33.898811 107.226289 0.000000 0.000000 0.000000 -1.394811 -0.633668 8.380088 -0.551987 0.480098 8.598263 -1.284951 -1.253646 -3.614879 0.000000 0.000000 0.000000 7.654969 -0.794288 7.020372 -2.331033 1.095059 -2.370964 -1.708485 7.534226 11.089063 5.858076 -2.018790 -15.468067 0.000000 0.000000 0.000000 -16.697067 -9.658709 2.209031 -48.768679 -6.756584 -3.421454 -13.310108 -63.072644 9.825331 0.000000 0.000000 0.000000 16.825632 2.314419 1.107203 55.043880 13.598236 0.027706 10.669172 52.537266 8.747852 0.000000 0.000000 0.000000 
0.052969 0.921271 0.102513 -0.716871 -4.758022 0.570098 6.780154 -0.481432 -18.217688 1.001700 -0.352184 6.149929 78.151387 33.808416 107.988445 0.000000 0.000000 0.000000 -1.737680 -0.644512 9.181271 -0.907497 0.575744 9.095238 -1.468595 -2.917998 -1.455820 0.000000 0.000000 0.000000 7.389330 -0.738767 6.607300 -1.904206 0.896334 -2.218110 -1.822742 7.416245 10.621938 6.262049 -2.396730 -14.985339 0.000000 0.000000 0.000000 -16.787760 -9.616439 2.271265 -47.799143 -6.609106 -3.380243 -15.364650 -66.936292 12.018043 0.000000 0.000000 0.000000 17.926420 1.403706 0.505863 53.384896 13.297096 -0.170552 13.500003 55.439794 10.726418 0.000000 0.000000 0.000000 
0.066666 0.921265 0.127660 -1.075774 -5.399799 0.857372 6.739421 -0.463034 -18.032256 0.014911 -0.231758 8.407105 79.073357 33.702494 108.770082 0.000000 0.000000 0.000000 -2.176951 -0.611569 9.659125 -1.440749 0.738667 10.062155 -1.167992 -3.236589 0.637984 0.000000 0.000000 0.000000 7.137641 -0.721027 6.551653 -1.886085 0.892599 -1.238792 -1.816736 6.530108 10.023340 5.350971 -1.990272 -14.522315 0.000000 0.000000 0.000000 -16.530490 -9.173981 2.335423 -46.859310 -7.711550 -2.920157 -16.040250 -71.800899 13.987090 0.000000 0.000000 0.000000 18.446517 1.557392 0.269617 53.587347 12.569368 -0.386993 14.631352 59.047059 11.934750 0.000000 0.000000 0.000000 
0.079955 0.921906 0.150247 -1.610780 -5.874674 1.150264 6.807552 -0.429456 -17.552275 -0.850381 -0.075439 9.816676 79.815810 33.652918 109.313703 0.000000 0.000000 0.000000 -2.762701 -0.480669 8.877102 -1.202607 0.803765 11.670912 -0.732436 -4.477204 5.352776 0.000000 0.000000 0.000000 6.825788 -0.755409 7.072207 -1.705550 0.807310 -1.116620 -1.859494 6.599044 9.907605 5.565654 -2.151835 -14.476818 0.000000 0.000000 0.000000 -15.764567 -9.583772 2.614832 -46.170797 -9.756838 -2.140746 -16.338848 -76.042693 15.373783 0.000000 0.000000 0.000000 19.104159 1.091883 -0.050932 52.872183 11.587923 -0.836965 16.500399 61.880311 13.741069 0.000000 0.000000 0.000000 
0.093106 0.922562 0.170250 -2.286704 -5.786217 1.877424 7.133192 -0.396814 -17.983103 -1.950529 0.150100 11.499135 79.885221 33.672622 109.266937 0.000000 0.000000 0.000000 -3.249042 -0.299399 6.763850 -0.654831 0.904160 14.976805 -0.178588 -5.320190 10.175164 0.000000 0.000000 0.000000 6.016090 -0.785831 7.854701 -1.379409 0.658916 -0.454604 -1.667789 5.904440 9.511013 5.561416 -2.256434 -14.149911 0.000000 0.000000 0.000000 -14.997057 -10.072966 3.019898 -45.231100 -13.636402 -0.702169 -8.904855 -79.643796 10.388609 0.000000 0.000000 0.000000 19.615936 0.948075 -0.322178 52.638578 11.316673 -0.897228 14.563863 63.784498 12.878708 0.000000 0.000000 0.000000 
0.106393 0.922005 0.188608 -3.000301 -5.977598 2.305828 7.645398 -0.313969 -18.464457 -3.267002 0.481528 13.760235 79.600992 33.581040 109.343707 0.000000 0.000000 0.000000 -3.835144 -0.086721 4.109638 0.642492 0.901954 19.966668 -0.504604 -7.374236 14.276520 0.000000 0.000000 0.000000 5.126337 -0.840233 9.352849 -0.863055 0.415100 -0.346473 -1.619226 5.785994 9.511457 5.922086 -2.622637 -13.426366 0.000000 0.000000 0.000000 -14.779390 -11.902430 3.977148 -43.269759 -17.851898 0.749041 12.638511 -80.721540 -7.614073 0.000000 0.000000 0.000000 20.541956 1.355585 -0.178304 51.459942 10.855324 -1.129501 11.293377 65.281897 11.105870 0.000000 0.000000 0.000000 
0.119928 0.921704 0.206272 -3.229805 -5.114650 2.399053 7.446635 -0.391489 -18.962311 -4.387241 0.781670 16.129237 78.516012 33.687898 108.390101 0.000000 0.000000 0.000000 -4.733827 0.144543 0.843846 1.844923 0.856424 26.499592 -0.903640 -8.291085 15.445557 0.000000 0.000000 0.000000 4.158692 -0.866378 10.907141 -0.697563 0.336864 -0.243735 -1.212467 5.165010 10.525920 5.483358 -2.148892 -15.017812 0.000000 0.000000 0.000000 -15.094363 -14.766995 5.496425 -40.143867 -22.787193 2.114453 34.814846 -77.581758 -25.028840 0.000000 0.000000 0.000000 20.667902 1.251804 -0.265340 51.364404 11.283934 -1.044960 8.282109 66.579975 9.471156 0.000000 0.000000 0.000000 
